<?xml version="1.0" standalone="no"?>
<!DOCTYPE svg PUBLIC "-//W3C//DTD SVG 20010904//EN"
 "http://www.w3.org/TR/2001/REC-SVG-20010904/DTD/svg10.dtd">
<svg version="1.0" xmlns="http://www.w3.org/2000/svg"
 width="96.000000pt" height="96.000000pt" viewBox="0 0 96.000000 96.000000"
 preserveAspectRatio="xMidYMid meet">
<metadata>
Created by potrace 1.16, written by Peter Selinger 2001-2019
</metadata>
<g transform="translate(0.000000,96.000000) scale(0.100000,-0.100000)"
fill="#000000" stroke="none">
<path d="M394 885 c-10 -8 -27 -15 -37 -15 -32 0 -74 -38 -96 -85 -18 -38 -21
-63 -21 -172 0 -127 -18 -255 -39 -276 -8 -8 -11 17 -11 83 0 73 -3 91 -12 82
-15 -15 -70 -16 -85 -1 -9 9 -13 3 -17 -22 -10 -57 -26 -238 -26 -288 0 -110
56 -131 153 -57 l45 34 6 -36 c3 -21 6 -49 6 -64 l0 -28 94 0 c85 0 94 2 99
20 7 29 37 37 53 15 7 -10 11 -22 8 -26 -3 -5 37 -9 89 -9 107 0 107 0 107 88
l0 44 38 -30 c20 -16 47 -34 59 -41 28 -14 76 -14 91 1 15 15 15 110 2 233
-18 163 -21 178 -33 166 -14 -14 -74 -14 -83 1 -5 8 -11 6 -19 -5 -11 -15 -13
-14 -24 11 -7 14 -17 67 -22 116 -5 49 -14 107 -21 128 -16 55 -78 122 -126
136 -56 17 -154 15 -178 -3z m152 -183 l54 5 50 -53 c59 -62 61 -78 21 -166
-51 -113 -126 -177 -195 -164 -57 11 -122 61 -166 127 -55 83 -60 111 -25 141
15 12 47 49 71 80 l44 57 46 -16 c28 -10 66 -14 100 -11z"/>
</g>
</svg>
